<?xml version="1.0" standalone="no"?>
<!DOCTYPE svg PUBLIC "-//W3C//DTD SVG 1.1//EN" "http://www.w3.org/Graphics/SVG/1.1/DTD/svg11.dtd" >
<!--
2013-9-30: Created.
-->
<svg>
<metadata>
Created by iconfont
</metadata>
<defs>

<font id="iconfont" horiz-adv-x="1024" >
  <font-face
    font-family="iconfont"
    font-weight="500"
    font-stretch="normal"
    units-per-em="1024"
    ascent="896"
    descent="-128"
  />
    <missing-glyph />
    
    <glyph glyph-name="yousanjiao" unicode="&#58893;" d="M243.9786-143.3834V754.8066410973361l537.2558-449.6951L243.9786-143.3834zM243.9786-143.3834"  horiz-adv-x="1000" />

    
    <glyph glyph-name="qq" unicode="&#58884;" d="M209.92 352.96l-1.6 5.12-1.28 6.72-0.96 3.68v4.64V378.4v4.960000000000001l1.6 5.92 1.6 6.24 2.08 6.56 2.88 7.36 3.68 7.52 5.28 7.52v5.28l0.48 4.96 0.8 6.72 2.24 7.52 2.08 8.16 1.6 3.84 1.92 3.52 2.4 3.84 2.72 2.88v5.28 6.08 7.359999999999999l1.6 9.6 1.6 11.2 2.72 13.44 3.84 13.92 2.88 7.68 2.88 8.32 3.04 7.84 3.68 8.32 3.84 9.12 4.32 8.64 4.8 9.12 6.24 9.12 2.88 5.28 3.04 4.32 6.56 9.6 6.72 9.6 7.68 9.92 8.32 9.76 8.96 9.44 9.28 9.76 11.36 10.56 7.2 6.4 8.8 6.88 8.8 6.08 9.6 5.92 9.28 5.28 10.4 4.32 11.04 5.44 11.04 3.68 11.04 3.84 11.84 3.84 11.84 2.88 12.48 2.4 12.64 2.08 12.48 1.76 12.48 1.76 13.28 0.8h12.64 13.12 13.440000000000001l13.12-1.76 13.12-1.6 13.44-1.44 12.32-3.04 13.12-2.88 12.32-3.2 13.44-3.68 12.32-4.48 11.84-5.12 12.64-5.44 11.52-5.92 11.2-6.56 10.88-7.2 9.44-6.72 4.32-3.84 4.64-2.72 8.8-7.52 7.36-7.36 7.36-7.52 7.2-8.32 5.92-8.16 7.04-8.32 4.96-8.96 4.96-8 5.28-9.28 4.32-8.16 7.36-17.12 3.68-8.8 2.88-8.16 2.88-8.96 2.56-8.32 1.76-7.2 2.24-8.48 4-15.2 2.56-13.12 1.6-12.8 1.44-10.24 2.24-15.68 0.48-2.56 1.76-2.88 4.8-8.16 3.04-5.44 2.72-5.76 3.52-6.08 3.04-7.36 2.08-7.52 2.24-8.16 1.76-8.48 0.8-4.16 0.64-5.12v-4.4799999999999995l-0.64-4.48v-5.44l-1.28-5.28-2.4-10.4-2.72-5.28-1.92-5.92v-1.4400000000000002l0.96-1.76 2.72-4.32 11.52-17.44 9.12-13.12 4.32-8.8 5.92-9.6 5.12-10.4 5.92-11.2 5.92-12.48 6.72-14.24 3.68-8.8 3.36-8.48 3.04-8.96 2.88-8.16 2.24-8.48 2.24-8 2.88-15.52 2.24-16 1.6-14.08v-7.68-6.24-5.920000000000001l-1.12-7.04-1.44-12.16-2.08-11.04-3.2-9.92-1.12-4-2.24-4.8-1.92-3.36L920 76l-2.24-2.56-2.72-3.36-2.4-2.72-2.72-2.4-3.2-1.44-2.88-1.44-2.4-0.8H899.2h-1.6l-2.24 0.8-4.32 2.24-2.08 1.44-2.08 1.6-2.24 2.08-2.24 2.4-3.84 4.32-4.48 6.08-3.52 6.24-3.52 5.12-3.52 5.92-4.96 10.4-5.44 10.88-0.64 0.32h-0.96l-2.24-1.76-1.28-2.88-2.08-3.52-3.84-10.56-5.6-15.04-7.2-18.08-5.44-8.96-5.76-9.44-6.72-10.56-7.2-10.4-3.68-4.64-4.48-5.12-10.24-10.4 0.96-0.96 1.44-1.44 5.12-3.04 21.44-10.4 9.28-5.28 8.96-5.28 8.8-6.56 7.84-6.72 3.84-3.04 2.88-3.52 2.88-4 2.4-4.48 1.28-3.68 1.6-4.48 0.64-3.84 0.8-4.48-0.8-3.04v-3.04l-0.64-3.2-1.6-2.88-0.64-2.24-1.44-2.72-3.84-5.44-3.52-4.32-2.72-3.2-2.4-2.4-5.92-4.48-6.72-3.84-7.2-3.68-7.52-3.52-8.64-3.36-4.48-1.44-4.16-1.12-9.92-2.4-10.24-2.24-10.24-2.24-11.2-1.76-11.52-0.48-11.84-1.44h-11.68-12.32-12.64l-13.28 0.8-12.32 1.12-13.28 1.76-13.12 1.44-13.92 1.92-13.44 3.36-13.12 2.56-13.12 3.84-13.44 4.8-13.12 4-6.88 2.4-6.24 2.24-3.84 1.6-3.84 0.8h-4.960000000000001-5.920000000000001l-12.64 0.96-6.4 0.64-8.16 0.96-5.28-4.8-7.2-4.64-9.76-4.8-10.72-6.08-6.56-3.2-6.88-2.56-15.2-6.24-8.16-2.08-8.64-2.4-12-2.4-7.52-0.64-7.84-0.64-8.32-0.96-9.6-0.48h-9.28-9.600000000000001-20.480000000000004l-22.24 0.48-21.44 2.24-10.88 1.6-10.56 1.6-10.24 1.6-10.24 2.08-9.44 3.2-9.6 2.24-8.64 3.52-8.16 3.2-7.52 3.68-6.56 4-6.56 4.8-2.24 2.4-2.88 2.88-2.24 2.56-2.08 2.88-1.76 2.88-1.44 2.88-2.08 6.08-0.8 3.2-0.96 3.52v3.2l0.96 3.68v3.6799999999999997l0.8 3.68v2.2399999999999998 5.120000000000001l0.32 3.84 1.76 4.48 1.44 4.48 2.56 5.28 1.92 2.08 1.6 2.4 4.16 5.12 3.2 2.56 3.04 1.76 2.88 2.4 4.48 1.44 3.52 2.24 4.48 2.4 5.12 1.6 5.12 1.6 5.92 1.28 5.6 0.8 6.72 0.96 7.2 0.48 1.92 0.64h0.32000000000000006l0.96 0.8v0.96l-1.28 1.76-3.84 1.76-9.6 8.48-6.4 5.28-7.52 6.72-7.52 7.36-7.84 9.6-8.96 10.72-3.36 5.76-4.48 5.92-3.84 6.88-3.52 7.52-4.64 7.2-3.04 8.16-3.68 8.16-3.68 9.12-2.72 8.8-2.4 10.88-0.8 0.32H176l-0.32 0.8h-0.96l-1.6-0.8-0.8-0.32L171.2 130.4l-0.32-2.24-0.8-1.92-1.44-3.2-4.48-8-2.24-4.8-3.68-4.16-3.84-5.12-4.16-5.6-4.48-4.96-5.28-4.8-4.96-4.48-5.28-3.52-5.92-3.84-5.6-2.24-6.72-1.76-6.56-0.64h-0.6400000000000001H104l-1.44 0.64-1.12 2.56-1.92 1.28-2.56 6.24-1.6 3.36-1.76 4.8-1.44 5.12-0.8 4.96-2.08 11.36-0.8 6.72v6.720000000000001 15.200000000000001l0.8 16.32 1.28 8.32 1.6 8.64 1.44 9.28 2.4 8.64 2.72 9.92 2.88 9.6 4 11.2 3.52 9.6 4.96 9.6 4.64 10.4 5.6 9.76 6.72 10.56 6.72 9.6 7.04 10.56 5.92 7.36 7.52 8.48 8 8.48 3.68 4 4.48 4.64 6.56 5.76 6.72 5.92 10.88 9.92 8.32 6.08L209.92 352.96z"  horiz-adv-x="1024" />

    
    <glyph glyph-name="search2" unicode="&#58922;" d="M886.721 90.815l-109.511 109.501c-10.071 10.084-26.413 10.084-36.492 0l-2.949-2.947c0 0-54.103 53.791-55.538 54.693 42.858 53.354 68.521 121.108 68.521 194.864 0 171.993-139.423 311.414-311.407 311.414-171.984 0-311.406-139.422-311.406-311.414 0-171.974 139.422-311.406 311.406-311.406 73.768 0 141.53 25.669 194.884 68.537 0.903-1.432 54.69-55.525 54.69-55.525l-2.953-2.951c-10.071-10.085-10.071-26.437 0-36.506l109.505-109.504c10.082-10.084 26.422-10.084 36.503 0l54.751 54.752c10.072 10.084 10.072 26.413-0.002 36.493zM439.344 255.477c-105.736 0-191.447 85.712-191.447 191.448 0 105.761 85.711 191.473 191.447 191.473 105.748 0 191.471-85.712 191.471-191.473 0-105.735-85.721-191.448-191.471-191.448z"  horiz-adv-x="1024" />

    
    <glyph glyph-name="manjian" unicode="&#58989;" d="M271.741008 299.095261c23.600511 22.10853 36.71725 52.984748 39.35431 92.62763l-39.35431 0L271.741008 299.095261zM678.893055 387.598968l32.30373 0 0-58.431807-32.30373 0 0 58.431807ZM393.410068 449.807798l-56.709583 0c-0.115634-9.964956-0.287549-21.538549-0.517793-34.713616l56.712653 0C393.123542 425.86141 393.295458 437.436026 393.410068 449.807798zM895.947556 639.965719 128.051421 639.965719c-35.342949 0-63.99143-28.650527-63.99143-63.99143l0-383.947556c0-35.342949 28.64848-63.99143 63.99143-63.99143l767.896134 0c35.338856 0 63.99143 28.64848 63.99143 63.99143L959.938985 575.974289C959.938985 611.315192 931.286412 639.965719 895.947556 639.965719zM805.373701 570.79329c11.455913-11.45796 22.338774-22.914896 32.651654-34.371832l-19.591197-15.46625c-9.392928 11.914354-19.591197 23.944342-30.591739 36.090986L805.373701 570.79329zM544.847106 544.326499c16.039301-18.559705 32.077579-38.381146 48.118927-59.46023l-23.715121-17.185404c-18.789948 27.037796-34.029024 47.661509-45.712111 61.867046L544.847106 544.326499zM189.93791 236.711446l-30.245861 8.936533c11.455913 36.202527 22.454408 80.084966 32.997532 131.638109 9.624195-4.585435 18.903535-8.364505 27.840068-11.342326C210.447013 325.156824 200.248743 282.080749 189.93791 236.711446zM205.40416 408.563442c-18.10331 17.413602-35.975353 33.56956-53.616128 48.461735l17.185404 19.591197c20.84884-15.808034 39.636742-31.163767 56.367799-46.055942C216.862119 421.165458 210.216769 413.832446 205.40416 408.563442zM210.561623 504.456443c-15.124466 15.812127-30.706349 30.357402-46.74565 43.652196l17.185404 18.557658c15.812127-12.372795 32.193213-26.121937 49.151443-41.24231C223.046982 518.088928 216.516242 511.0977 210.561623 504.456443zM493.771847 449.807798l-75.957972 0c0-11.79872-0.115634-23.372314-0.341784-34.713616l65.99097 0 0-136.792503c0-26.808576-12.948917-40.21491-38.838563-40.21491-11.230786 0-23.715121 0.345877-37.465287 1.031493-1.144056 8.707312-2.863211 17.529235-5.15337 26.464745 14.890128-1.829671 27.037796-2.747577 36.430724-2.747577 13.290701 0 19.937075 6.64535 19.937075 19.932981l0 23.889083c-4.469801-4.124947-10.19827-9.452279-17.185404-15.981996-12.373819 15.919575-24.346501 30.417777-35.919071 43.478234-9.051143-26.010397-23.200398-47.603181-42.445718-64.787562-5.04183 6.184863-10.886955 12.484336-17.531282 18.903535 27.382651 23.600511 42.904159 58.083883 46.573735 103.455233l-56.367799 0c-0.460488-9.166777-1.489934-17.935488-3.093455-26.294876 12.830213-11.57257 25.375947-23.77652 37.635155-36.602639-2.061962-1.835811-8.250918-7.90504-18.559705-18.21792-8.709359 10.082636-17.300015 19.702738-25.780153 28.872584-8.477069-24.978904-22.225187-46.057989-41.244356-63.243393-3.89368 4.696975-8.133238 9.736758-12.71458 15.124466l0-56.023968-25.090445 0L246.650563 415.093159l65.301262 0c0.230244 11.914354 0.345877 23.482831 0.345877 34.713616l-75.273381 0 0 23.373337 256.746502 0L493.770823 449.807798zM494.459508 510.645398l-66.332754 0 0-29.560246-26.121937 0 0 29.560246-72.867588 0 0-29.904077-26.121937 0 0 29.904077-65.645093 0 0 23.370267 65.645093 0 0 38.150902 26.121937 0 0-38.150902 72.867588 0 0 38.496779 26.121937 0 0-38.496779 66.332754 0L494.459508 510.645398zM517.348821 280.705426c14.20656 38.266535 28.757974 85.810365 43.652196 142.638651 8.706289-4.128017 17.185404-7.7935 25.434276-11.000542-10.308787-36.891212-24.056905-83.864036-41.24231-140.918473L517.348821 280.705426zM678.893055 286.550551l-22.686698 0L656.206356 408.909319l77.677127 0 0-101.048417-54.990428 0L678.893055 286.550551zM650.02047 440.183604l0 21.99699 84.896552 0 0-21.99699L650.02047 440.183604zM848.339258 263.520021c-5.043876-18.101263-13.290701-27.037796-24.74866-26.808576-9.856485-0.228197-19.133779 5.387707-27.840068 16.841573-8.590656 12.834306-15.870456 27.380604-21.825075 43.652196-16.495696-23.030529-34.541701-43.191708-54.132898-60.493769-7.106862 6.186909-14.550391 11.688203-22.338774 16.499789 25.545816 20.850887 47.944965 45.823652 67.194378 74.927503-9.055237 36.20048-14.208607 91.077322-15.46625 164.633594L634.899074 492.772332l0-87.646176c0-70.115917-16.271592-126.709867-48.807612-169.787988-8.477069 8.936533-15.46625 15.236006-20.965497 18.901489 30.476105 38.494733 45.712111 89.249697 45.712111 152.260799L610.838076 516.142599l137.822972 0c-0.228197 18.445094-0.341784 36.432771-0.341784 53.963029l25.090445 0c0-17.419741 0.054235-35.403325 0.169869-53.963029l83.006506 0 0-23.370267-82.832544 0c0.457418-55.336306 3.719718-99.676164 9.797134-133.013433 15.808034 29.443589 28.925796 62.437028 39.35431 98.984409l24.744567-8.592702c-15.46625-47.77305-34.085306-89.649809-55.852052-125.622092 5.843078-20.623713 12.546757-36.375465 20.106943-47.261397 7.330966-8.936533 12.372795-7.102768 15.124466 5.499248 2.517333 13.519921 4.692882 30.015617 6.53074 49.495274 10.766205-3.897773 19.24532-6.760984 25.432229-8.594749C855.783811 299.380764 852.230891 279.333172 848.339258 263.520021zM458.372615 391.723915 416.438551 391.723915c-0.685615-10.889001-2.059915-21.255093-4.124947-31.107485 18.445094-18.901489 33.795711-35.229362 46.057989-48.977481L458.371592 391.723915z"  horiz-adv-x="1024" />

    
    <glyph glyph-name="shandian-copy" unicode="&#58883;" d="M808.421 438.583h-197.949l66.318 433.269-461.211-566.583h230.103l-65.313-433.269 428.052 566.583z"  horiz-adv-x="1024" />

    
    <glyph glyph-name="yanjing" unicode="&#59068;" d="M1023.619 384.127c0-98.048-210.945-307.137-511.617-307.137C219.009 76.926 0.384 282.622 0.384 384.127c0 101.44 219.585 306.817 511.617 306.817C814.978 690.943 1023.683 485.567 1023.619 384.127L1023.619 384.127zM512.449 634.879c-136.192 0-246.529-112.32-246.529-250.881s110.4-250.945 246.529-250.945c136.192 0 246.593 112.384 246.593 250.945S648.642 634.879 512.449 634.879L512.449 634.879zM512.001 544.127c-86.72 0-156.992-71.552-156.992-159.808s70.272-159.744 156.992-159.744 156.992 71.552 156.992 159.808S598.721 544.127 512.001 544.127L512.001 544.127z"  horiz-adv-x="1024" />

    
    <glyph glyph-name="buoumaotubiao01" unicode="&#58880;" d="M861.160727-85.387636 228.933818-85.387636c-12.846545 0-23.272727 10.426182-23.272727 23.272727s10.426182 23.272727 23.272727 23.272727l632.226909 0c38.493091 0 69.818182 31.325091 69.818182 69.818182l0 698.181818c0 38.493091-31.325091 69.818182-69.818182 69.818182l-698.181818 0c-38.493091 0-69.818182-31.325091-69.818182-69.818182l0-768c0-12.846545-10.426182-23.272727-23.272727-23.272727s-23.272727 10.426182-23.272727 23.272727l0 768c0 64.162909 52.200727 116.363636 116.363636 116.363636l698.181818 0c64.162909 0 116.363636-52.200727 116.363636-116.363636l0-698.181818C977.524364-33.186909 925.323636-85.387636 861.160727-85.387636zM512.069818 380.066909c-144.151273 0-261.422545 117.271273-261.422545 261.422545 0 12.846545 10.426182 23.272727 23.272727 23.272727s23.272727-10.426182 23.272727-23.272727c0-118.481455 96.395636-214.877091 214.877091-214.877091s214.877091 96.395636 214.877091 214.877091c0 12.846545 10.426182 23.272727 23.272727 23.272727s23.272727-10.426182 23.272727-23.272727C773.515636 497.338182 656.244364 380.066909 512.069818 380.066909z"  horiz-adv-x="1024" />

    
    <glyph glyph-name="buoumaotubiao46" unicode="&#58924;" d="M279.760756 434.013091c-17.873455 0-35.746909 6.795636-49.361455 20.386909l-194.513455 194.513455c-9.099636 9.099636-9.099636 23.808 0 32.907636s23.808 9.099636 32.907636 0l194.513455-194.513455c9.146182-9.099636 23.877818-9.076364 32.930909 0l109.405091 109.428364c4.375273 4.375273 6.772364 10.193455 6.772364 16.453818s-2.420364 12.101818-6.772364 16.477091L211.408756 823.901091c-9.099636 9.099636-9.099636 23.808 0 32.907636s23.808 9.099636 32.907636 0l194.234182-194.234182c13.149091-13.149091 20.410182-30.696727 20.410182-49.384727s-7.261091-36.212364-20.410182-49.384727l-109.405091-109.428364C315.530938 440.808727 297.657484 434.013091 279.760756 434.013091zM891.228393-119.552c-34.373818 0-68.701091 13.079273-94.859636 39.237818L512.83712 203.217455c-9.099636 9.099636-9.099636 23.808 0 32.907636s23.808 9.099636 32.907636 0l283.554909-283.554909c34.187636-34.164364 89.716364-34.164364 123.904 0 34.117818 34.141091 34.117818 89.716364 0 123.904L669.625484 360.005818c-9.099636 9.076364-9.099636 23.808 0 32.907636s23.808 9.099636 32.907636 0L986.111302 109.381818c52.270545-52.317091 52.270545-137.425455 0-189.696C959.952756-106.472727 925.602211-119.552 891.228393-119.552zM366.91712 157.184c-94.976 0-188.485818 37.12-259.630545 108.288C0.488029 372.247273-30.13888 536.762182 31.04512 674.816 36.234938 686.545455 49.919302 691.921455 61.76512 686.661818 73.517847 681.448727 78.800756 667.694545 73.610938 655.965091c-53.457455-120.599273-26.693818-264.285091 66.583273-357.562182 100.677818-100.654545 252.602182-123.438545 378.158545-56.552727 11.310545 6.050909 25.460364 1.722182 31.488-9.611636 6.050909-11.357091 1.745455-25.437091-9.611636-31.488C485.235665 171.473455 425.773847 157.184 366.91712 157.184zM705.418938 435.106909c-1.489455 0-3.025455 0.139636-4.538182 0.442182-12.613818 2.490182-20.805818 14.731636-18.315636 27.345455 20.875636 105.541818-11.985455 213.922909-87.947636 289.908364-93.323636 93.300364-237.056 120.017455-357.608727 66.56C225.139665 814.149818 211.455302 819.479273 206.288756 831.208727 201.075665 842.961455 206.381847 856.715636 218.134575 861.905455c137.960727 61.207273 302.568727 30.626909 409.390545-76.194909 86.970182-86.970182 124.602182-211.037091 100.724364-331.869091C726.038575 442.763636 716.310575 435.106909 705.418938 435.106909z"  horiz-adv-x="1026" />

    
    <glyph glyph-name="shouye_taiyang_shijiantixing" unicode="&#58977;" d="M469.248 587.73504c104.35584 0 189.47072-85.11488 189.47072-189.48096 0-104.35584-85.12512-189.45024-189.47072-189.45024-104.35584 0-189.48096 85.10464-189.48096 189.45024 0 104.36608 85.11488 189.48096 189.48096 189.48096zM469.22752 722.62656l26.39872-101.3248a224.5632 224.5632 0 0 1-52.77696 0l26.37824 101.3248zM557.86496 604.57984a224.62464 224.62464 0 0 0 45.70112-26.50112l27.86304 101.08928-73.56416-74.58816zM649.04192 532.5824a224.9728 224.9728 0 0 0 26.50112-45.71136l74.5984 73.5744-101.09952-27.86304zM692.26496 424.63232l101.33504-26.37824-101.33504-26.37824a221.97248 221.97248 0 0 1 0 52.75648zM675.54304 309.6576a225.42336 225.42336 0 0 0-26.54208-45.7216l101.14048-27.86304-74.5984 73.58464zM603.55584 218.50112a226.4576 226.4576 0 0 0-45.7216-26.54208l73.58464-74.5984-27.86304 101.14048zM495.62624 175.2576l-26.39872-101.376-26.37824 101.376a220.30336 220.30336 0 0 1 52.77696 0zM380.6208 191.97952a224.70656 224.70656 0 0 0-45.70112 26.5216l-27.88352-101.14048 73.58464 74.61888zM289.4848 263.936a225.09568 225.09568 0 0 0-26.54208 45.74208l-74.61888-73.60512 101.16096 27.86304zM246.2208 371.85536l-101.35552 26.39872 101.35552 26.38848a224.47104 224.47104 0 0 1 0-52.7872zM262.94272 486.8608a225.65888 225.65888 0 0 0 26.50112 45.71136l-101.12 27.87328 74.61888-73.58464zM334.90944 578.06848a226.05824 226.05824 0 0 0 45.70112 26.50112l-73.56416 74.5984 27.86304-101.09952z"  horiz-adv-x="1024" />

    
    <glyph glyph-name="shaixuan" unicode="&#58921;" d="M441.1-64.1c-2.8 0-5.7 0.6-8.3 1.8-7.1 3.3-11.7 10.4-11.7 18.2V491.2L124.8 798.1c-5.6 5.8-7.2 14.4-4 21.8 3.1 7.4 10.4 12.2 18.5 12.2h745.5c8.1 0 15.3-4.8 18.5-12.2 3.1-7.4 1.6-16-4-21.8L603 491.2v-412.4c0-5.8-2.5-11.4-6.9-15.2L454.2-59.2c-3.7-3.3-8.4-4.9-13.1-4.9zM186.5 792l269-278.8c3.6-3.7 5.6-8.7 5.6-13.9v-499.4L562.8 88V499.3c0 5.2 2 10.2 5.6 13.9l269 278.8H186.5z"  horiz-adv-x="1024" />

    
    <glyph glyph-name="sousuo2" unicode="&#59000;" d="M998.701176 68.818824L766.960941 300.559059c77.793882 153.735529 47.917176 343.988706-74.420706 466.29647-76.016941 76.016941-177.091765 117.895529-284.611764 117.880471-107.504941 0-208.579765-41.863529-284.611765-117.880471-156.928-156.928-156.928-412.265412 0-569.20847 75.941647-75.941647 176.911059-117.744941 284.310588-117.744941a401.618824 401.618824 0 0 1 207.23953 57.298823l226.093176-226.108235a75.535059 75.535059 0 0 1 52.946824-22.166588c18.507294 0 35.704471 7.002353 48.429176 19.727058l58.789647 58.774589c27.301647 27.271529 26.202353 72.764235-2.424471 101.391059zM611.478588 278.723765c-54.377412-54.377412-126.644706-84.314353-203.535059-84.314353s-149.172706 29.936941-203.535058 84.314353c-112.218353 112.218353-112.218353 294.851765 0 407.070117 54.362353 54.377412 126.644706 84.299294 203.535058 84.299294s149.157647-29.921882 203.535059-84.299294c112.218353-112.218353 112.218353-294.836706 0-407.070117z"  horiz-adv-x="1024" />

    
    <glyph glyph-name="fanhui" unicode="&#59151;" d="M333.376 384.79l392.651 392.652c12.729 12.729 12.729 33.372 0 46.081-12.709 12.729-33.373 12.729-46.08 0l-414.77-414.748a32.47 32.47 0 0 1-7.726-12.285c-4.695-11.74-2.292-25.659 7.215-35.151l414.77-414.789c12.707-12.71 33.372-12.71 46.08 0 12.729 12.729 12.729 33.373 0 46.08l-392.14 392.16z"  horiz-adv-x="1024" />

    
    <glyph glyph-name="cuohao-" unicode="&#58923;" d="M800 864H224C117.968 864 32 778.032 32 672v-576c0-106.032 85.968-192 192-192h576c106.032 0 192 85.968 192 192V672c0 106.032-85.968 192-192 192z m-16.672-709.696l0.096-0.096c11.472-11.52 11.424-30.128-0.096-41.568a29.488 29.488 0 0 0-41.664 0L512 342.352 282.336 112.64a29.488 29.488 0 0 0-41.664 0 29.488 29.488 0 0 0 0 41.664l229.664 229.728-229.728 229.648a29.488 29.488 0 0 0 0 41.664 29.488 29.488 0 0 0 41.664 0l229.776-229.664L741.728 655.36a29.488 29.488 0 0 0 41.664 0c11.488-11.52 11.488-30.144 0-41.664L553.664 384.032l229.664-229.728z"  horiz-adv-x="1024" />

    
    <glyph glyph-name="xiangmulan-weixinhao" unicode="&#58920;" d="M475.865 834c-214.979 0-391.109-146.569-391.109-332.605 0-107.412 58.658-195.632 156.474-264.041l-39.157-117.626 136.665 68.564c48.908-9.751 88.221-19.657 136.973-19.657 12.227 0 24.454 0.619 36.527 1.548-7.584 26.156-12.073 53.551-12.073 81.875 0 170.868 146.723 309.545 332.451 309.545 12.692 0 25.228-0.929 37.61-2.321-33.741 157.713-202.133 274.72-394.359 274.72zM336.259 544.576c-44.884 0-76.613 25.228-76.613 65.778s31.729 68.873 76.613 68.873 76.613-28.324 76.613-68.873-31.729-65.778-76.613-65.778zM627.232 544.576c-44.884 0-76.612 25.228-76.612 65.778s31.729 68.873 76.612 68.873 76.612-28.324 76.612-68.873-31.729-65.778-76.612-65.778zM1189.518 256.854c0 156.32-156.474 283.853-332.141 283.853-186.037 0-332.605-127.377-332.605-283.853 0-156.629 146.569-283.853 332.605-283.853 39.002 0 78.16 9.751 117.317 19.657l107.258-58.658-29.407 97.661c78.624 58.969 136.973 137.127 136.973 225.193zM752.907 293.071c-33.895 0-61.445 22.287-61.445 49.991s27.549 49.991 61.445 49.991 61.445-22.287 61.445-49.991-27.395-49.991-61.445-49.991zM964.325 293.071c-33.895 0-61.445 22.287-61.445 49.991s27.549 49.991 61.445 49.991 61.445-22.287 61.445-49.991-27.549-49.991-61.445-49.991z"  horiz-adv-x="1256" />

    
    <glyph glyph-name="chonghuafei" unicode="&#58910;" d="M699.733333 768H324.266667c-47.786667 0-85.333333-37.546667-85.333334-85.333333v-597.333334c0-47.786667 37.546667-85.333333 85.333334-85.333333h375.466666c47.786667 0 85.333333 37.546667 85.333334 85.333333v597.333334c0 47.786667-37.546667 85.333333-85.333334 85.333333z m-375.466666-34.133333h375.466666c29.013333 0 51.2-22.186667 51.2-51.2v-467.626667H273.066667V682.666667c0 29.013333 23.893333 51.2 51.2 51.2z m375.466666-699.733334H324.266667c-29.013333 0-51.2 22.186667-51.2 51.2v95.573334h477.866666v-95.573334c0-29.013333-23.893333-51.2-51.2-51.2zM512 150.186667c-23.893333 0-42.666667-18.773333-42.666667-42.666667s18.773333-42.666667 42.666667-42.666667 42.666667 18.773333 42.666667 42.666667-18.773333 42.666667-42.666667 42.666667z m0-51.2c-5.12 0-8.533333 3.413333-8.533333 8.533333s3.413333 8.533333 8.533333 8.533333 8.533333-3.413333 8.533333-8.533333-3.413333-8.533333-8.533333-8.533333zM426.666667 447.146667c-10.24 0-17.066667-6.826667-17.066667-17.066667s6.826667-17.066667 17.066667-17.066667h68.266666v-87.04c0-10.24 6.826667-17.066667 17.066667-17.066666s17.066667 6.826667 17.066667 17.066666v87.04h68.266666c10.24 0 17.066667 6.826667 17.066667 17.066667s-6.826667 17.066667-17.066667 17.066667h-68.266666v42.666666h68.266666c10.24 0 17.066667 6.826667 17.066667 17.066667s-6.826667 17.066667-17.066667 17.066667h-68.266666l59.733333 63.146666c6.826667 6.826667 6.826667 17.066667 0 23.893334-6.826667 6.826667-17.066667 6.826667-23.893333 0l-51.2-54.613334-51.2 54.613334c-6.826667 6.826667-17.066667 6.826667-23.893334 0s-6.826667-17.066667 0-23.893334l59.733334-63.146666h-68.266667c-10.24 0-17.066667-6.826667-17.066667-17.066667s6.826667-17.066667 17.066667-17.066667h68.266667v-42.666666H426.666667z"  horiz-adv-x="1024" />

    
    <glyph glyph-name="pingguo" unicode="&#58909;" d="M498.239983 680.9783a203.301166 203.301166 0 0 1 61.434772 49.431027 227.875074 227.875074 0 0 1 54.245596 165.568888h-5.010638a227.003659 227.003659 0 0 1-142.912092-75.094205 212.538167 212.538167 0 0 1-55.988427-160.383967 150.711259 150.711259 0 0 1 88.230789 20.478257z m292.141946-346.975747c-8.932006 106.748362 48.14569 170.666667 108.926899 212.668879a228.310782 228.310782 0 0 1-163.172496 99.559187 257.263552 257.263552 0 0 1-114.808952-10.761978c-16.339035-5.337418-32.024509-12.265169-47.492128-18.147222a197.876606 197.876606 0 0 0-49.670667-15.424049 91.237171 91.237171 0 0 0-38.99583 6.818824 605.219641 605.219641 0 0 1-105.659093 35.292316 224.781551 224.781551 0 0 1-150.319121-34.13769C152.288149 561.550847 105.449582 482.578844 98.696115 363.521743a0.740703 0.740703 0 0 0-0.653562-1.111055v-42.111139a648.594332 648.594332 0 0 1 150.319122-377.758489A169.4249 169.4249 0 0 1 353.58506-128h17.428304c65.573994 8.147732 104.569824 49.997447 183.650753 40.956514a336.322696 336.322696 0 0 0 84.745128-28.473491 148.467364 148.467364 0 0 1 96.073526-5.163135c51.849204 18.321505 86.923666 70.432133 115.24466 112.042209a593.956599 593.956599 0 0 1 75.159561 152.49766v1.154625a219.901625 219.901625 0 0 0-135.505063 188.966386z"  horiz-adv-x="1024" />

    
    <glyph glyph-name="sousuo" unicode="&#58894;" d="M1009.682395-49.258283l-232.822036 232.707576c61.245828 75.220056 97.948359 171.120415 97.94836 275.656304C874.808719 700.450747 679.257421 896 437.914315 896S1.019912 700.448703 1.019912 459.105597c0-241.341062 195.551297-436.892359 436.894403-436.892359 104.08214 0 199.641166 36.361198 274.634348 97.149189l232.822036-232.819992c8.862403-8.862403 20.451385-13.293605 32.154826-13.293605 11.588982 0 23.294467 4.431202 32.15687 13.293605 17.724806 17.72685 17.724806 46.474475 0 64.199282zM576.084822 131.862994c-43.745852-18.521932-90.218283-27.838084-138.170507-27.838084-47.95018 0-94.422611 9.430611-138.168463 27.838084-42.270148 17.839265-80.221509 43.518978-112.946587 76.129597-32.610619 32.610619-58.290331 70.674395-76.129596 112.944543-18.519888 43.745852-27.838084 90.218283-27.838084 138.168463 0 47.95018 9.430611 94.424655 27.838084 138.170507 17.839265 42.268104 43.518978 80.219465 76.129596 112.946587 32.610619 32.608575 70.676439 58.288287 112.946587 76.127553 43.745852 18.521932 90.218283 27.838084 138.168463 27.838083 47.95018 0 94.424655-9.430611 138.168463-27.838083 42.270148-17.839265 80.221509-43.518978 112.946587-76.129597 32.610619-32.610619 58.290331-70.56198 76.129597-112.944543 18.519888-43.745852 27.838084-90.218283 27.838084-138.168463 0-47.95018-9.430611-94.424655-27.838084-138.170507-17.839265-42.268104-43.518978-80.221509-76.129597-112.946587-32.725078-32.608575-70.676439-58.175872-112.946587-76.127553z"  horiz-adv-x="1024" />

    
    <glyph glyph-name="tian" unicode="&#58899;" d="M511.999363-127.936c-282.303647 0-511.99936 229.631713-511.99936 511.99936 0 282.239647 229.695713 511.87136 511.99936 511.87136a506.879366 506.879366 0 0 0 228.863714-53.951932l-28.607964-57.279929a443.327446 443.327446 0 0 1-200.25575 47.167941c-246.975691 0-447.99944-200.959749-447.99944-447.87144 0-246.975691 200.959749-447.99944 447.99944-447.99944s446.975441 233.727708 446.975441 480.767399c0 16.447979 0 16.447979-107.007866 11.391986l119.231851 228.863714s20.031975 2.623997 44.031945-151.103811 8.767989-102.975871 8.767989-121.855848c0-282.367647-229.759713-511.99936-511.99936-511.99936zM480.703402 94.015722l-56.767929 29.631963 196.351755 376.959529v36.479955H376.319532v63.99992h307.967616v-116.159855z"  horiz-adv-x="1028" />

    
    <glyph glyph-name="video-camera" unicode="&#59740;" d="M1024 694.857143v-621.714286q0-24-22.285714-33.714286-7.428571-2.857143-14.285715-2.857142-15.428571 0-25.714285 10.857142l-230.285715 230.285715v-94.857143q0-68-48.285714-116.285714T566.857143 18.285714H164.571429q-68 0-116.285715 48.285715T0 182.857143V585.142857q0 68 48.285714 116.285714T164.571429 749.714286h402.285714q68 0 116.285714-48.285715T731.428571 585.142857v-94.285714l230.285715 229.714286q10.285714 10.857143 25.714285 10.857142 6.857143 0 14.285715-2.857142 22.285714-9.714286 22.285714-33.714286z"  horiz-adv-x="1024" />

    
    <glyph glyph-name="down" unicode="&#58888;" d="M512.133 271.019l-292.16 292.155c-12.27 12.28-32.186 12.28-44.457 0-12.281-12.27-12.281-32.186 0-44.457l314.388-314.388c12.27-12.28 32.186-12.28 44.457 0l314.387 314.388c6.14 6.136 9.211 14.183 9.211 22.228s-3.071 16.092-9.211 22.228c-12.27 12.28-32.186 12.28-44.457 0l-292.159-292.155z"  horiz-adv-x="1024" />

    
    <glyph glyph-name="cart" unicode="&#58882;" d="M332.8 105.47199999999998q19.456 0 36.864-7.168t30.208-19.968 20.48-30.208 7.68-36.864-7.68-36.864-20.48-30.208-30.208-20.48-36.864-7.68q-20.48 0-37.888 7.68t-30.208 20.48-20.48 30.208-7.68 36.864 7.68 36.864 20.48 30.208 30.208 19.968 37.888 7.168zM758.784 103.42399999999998q19.456 0 37.376-7.168t30.72-19.968 20.48-30.208 7.68-36.864-7.68-36.864-20.48-30.208-30.72-20.48-37.376-7.68-36.864 7.68-30.208 20.48-20.48 30.208-7.68 36.864 7.68 36.864 20.48 30.208 30.208 19.968 36.864 7.168zM930.816 685.056q28.672 0 44.544-7.68t22.528-18.944 6.144-24.064-3.584-22.016-13.312-37.888-22.016-62.976-23.552-68.096-18.944-53.248q-13.312-40.96-33.28-56.832t-49.664-15.872l-35.84 0-65.536 0-86.016 0-96.256 0-253.952 0 14.336-92.16 517.12 0q49.152 0 49.152-41.984 0-20.48-9.728-35.84t-38.4-14.336l-49.152 0-94.208 0-118.784 0-119.808 0-99.328 0-55.296 0q-20.48 0-34.304 9.216t-23.04 24.064-14.848 32.256-8.704 32.768q-1.024 6.144-5.632 29.696t-11.264 58.88-14.848 78.848-16.384 87.552q-19.456 103.424-44.032 230.4l-76.8 0q-15.36 0-25.6 7.68t-16.896 18.432-9.216 23.04-2.56 22.528q0 20.48 13.824 33.792t37.376 12.288l103.424 0q20.48 0 32.768-6.144t19.456-15.36 10.24-18.944 5.12-16.896q2.048-8.192 4.096-23.04t4.096-30.208q3.072-18.432 6.144-38.912l700.416 0zM892.928 593.9200000000001l-641.024 2.048 35.84-185.344 535.552-1.024z"  horiz-adv-x="1028" />

    
    <glyph glyph-name="tian1" unicode="&#58901;" d="M953.23 584.311c-23.272 55.02-56.584 104.429-99.01 146.855-42.426 42.426-91.835 75.738-146.854 99.009-56.971 24.097-117.48 36.314-179.846 36.314S404.646 854.272 347.675 830.175c-55.019-23.271-104.428-56.583-146.854-99.01-42.427-42.425-75.738-91.835-99.01-146.854-24.096-56.97-36.313-117.478-36.313-179.845 0-120.28 45.975-234.182 129.456-320.727l22.095 21.314c-77.933 80.79-120.852 187.125-120.852 299.413 0 58.235 11.403 114.72 33.89 167.886 21.724 51.36 52.826 97.49 92.442 137.105 39.617 39.617 85.746 70.72 137.106 92.443C412.8 824.387 469.285 835.79 527.52 835.79c58.236 0 114.72-11.403 167.886-33.89 51.359-21.724 97.49-52.826 137.106-92.443s70.718-85.745 92.442-137.105c22.487-53.166 33.889-109.65 33.889-167.886 0-58.235-11.403-114.72-33.889-167.886-21.724-51.358-52.826-97.489-92.442-137.105-39.618-39.616-85.747-70.719-137.106-92.443-53.166-22.487-109.65-33.888-167.886-33.888-52.937 0-104.626 9.473-153.63 28.159l-10.938-28.684c52.51-20.021 107.88-30.174 164.568-30.174 62.366 0 122.875 12.218 179.846 36.314 55.019 23.271 104.428 56.583 146.854 99.01s75.738 91.835 99.01 146.854c24.096 56.97 36.313 117.48 36.313 179.845s-12.217 122.873-36.314 179.843zM427.844 199.372V597.607h-62.579c-26.549-46.787-73.957-84.091-142.226-111.884v-68.27c46.757 15.171 88.476 37.276 125.16 66.373v-284.454h79.645z m227.564 51.201c-37.928 0-61.336 21.482-70.164 64.477l-79.649-18.963c18.964-68.27 68.892-102.404 149.813-102.404 94.818 2.548 143.47 47.41 146.019 134.642-3.794 79.647-46.165 121.367-127.056 125.16-30.34 0-56.892-8.238-79.646-24.653l9.482 98.61h176.36v66.373h-244.63l-15.17-223.77 66.371-1.897c13.897 17.689 36.032 27.172 66.373 28.446 44.238-1.274 66.995-25.928 68.27-73.958-2.548-44.269-24.654-68.27-66.373-72.063z"  horiz-adv-x="1024" />

    
    <glyph glyph-name="xiasanjiao1" unicode="&#58917;" d="M85.5 645c-14-16.9-21.1-37.8-21.1-58.7 0-22.2 8.1-44.3 24.5-61.4l362.7-376c16.7-17.3 38.6-25.9 60.4-25.9h0.1c21.9 0 43.7 8.7 60.4 25.9l362.6 376c31.9 33 32.4 85.2 3.4 120l-853 0.1z"  horiz-adv-x="1024" />

    
    <glyph glyph-name="wode" unicode="&#59004;" d="M670.810982 343.128127c-48.826032-28.696576-97.753371-45.992497-158.812005-45.992497s-109.883643 17.194614-158.812006 40.190351C231.072773 285.633668 145.55098 170.846342 145.55098 38.763095c0-137.79125 732.898039-137.79125 732.89804 5.691629 0 132.193765-85.521792 247.074212-207.638038 298.673403z m-158.810982 31.199583c134.347824 0 243.323794 102.384855 243.323794 228.776473 0 126.382409-108.97597 228.776474-243.323794 228.776474s-243.331981-102.394065-243.331981-228.776474c-0.001023-126.391618 108.984157-228.776474 243.331981-228.776473z m0 0"  horiz-adv-x="1024" />

    
    <glyph glyph-name="duoyun-copy" unicode="&#58937;" d="M298.24 522.56m-248.85333333 0a248.85333333 248.85333333 0 1 1 497.70666666 0 248.85333333 248.85333333 0 1 1-497.70666666 0ZM298.24 522.56m-156.90666667 0a156.90666667 156.90666667 0 1 1 313.81333334 0 156.90666667 156.90666667 0 1 1-313.81333334 0ZM669.33333333 591.1466666700001c-118.61333333 0.64-222.4-62.82666667-278.72-157.86666667-30.93333333 13.86666667-65.17333333 21.65333333-101.22666666 21.97333333-141.01333333 1.28-255.36-111.36-256-252.37333333-0.10666667-13.54666667 0.96-26.88 2.88-39.89333333 0.21333333-1.38666667 0.42666667-2.88 0.64-4.26666667 16-93.97333333 98.45333333-162.24 193.81333333-162.24H735.46666667c104.21333333 0 198.18666667 64.32 234.02666666 162.13333333 0.53333333 1.38666667 1.06666667 2.88 1.6 4.37333334 11.73333333 33.38666667 18.13333333 69.22666667 18.13333334 106.56 0 177.17333333-142.50666667 320.64-319.89333334 321.6z"  horiz-adv-x="1024" />

    
    <glyph glyph-name="user-circle" unicode="&#58887;" d="M512-128C229.232-128 0 101.232 0 384S229.232 896 512 896s512-229.232 512-512-229.232-512-512-512z m0 896C299.92 768 128 596.08 128 384c0-95.728 36.288-182.176 94.24-249.44a321.232 321.232 0 0 0 172.368 162.512C349.52 332.208 320 386.416 320 448c0 106.032 85.952 192 192 192 106.032 0 192-85.952 192-192 0-61.6-29.52-115.792-74.608-150.928A321.28 321.28 0 0 0 801.76 134.56C859.696 201.824 896 288.272 896 384 896 596.08 724.08 768 512 768z"  horiz-adv-x="1024" />

    
    <glyph glyph-name="location" unicode="&#58897;" d="M512.103132 575.879021a106.221743 106.221743 0 1 0-75.507022-31.354611A106.221743 106.221743 0 0 0 512.103132 575.879021m0 63.989002a170.850635 170.850635 0 1 1 120.939214-49.911422A169.570855 169.570855 0 0 1 512.103132 639.868023zM805.172761 771.685367a407.609942 407.609942 0 0 1-586.139257 0 431.285873 431.285873 0 0 1 0-599.576948L512.103132-128l293.069629 300.108419a431.285873 431.285873 0 0 1 0 599.576948z m-44.152411-557.344207l-248.917218-255.956007-248.917217 255.956007a365.377201 365.377201 0 0 0 0 508.712565 346.82039 346.82039 0 0 0 497.834435 0 365.377201 365.377201 0 0 0 0-508.712565z"  horiz-adv-x="1024" />

    
    <glyph glyph-name="right" unicode="&#58955;" d="M669.95205843 384.34507869l-409.82303559-409.83004937c-17.22307416-17.21185209-17.22307416-45.14919896 1e-8-62.36245382 17.21185209-17.22307416 45.14919896-17.22307416 62.3624538 0l441.00917214 441.01197767c17.22728244 17.21185208 17.22728243 45.14919896 1e-8 62.36245382l-441.0105749 441.0105749c-8.60873156 8.61293983-19.89532992 12.92081252-31.18052554 12.92081251s-22.57319672-4.30787268-31.18052551-12.92081251c-17.22728244-17.21185208-17.22728243-45.14919896 0-62.36245381l409.8258411-409.83145214z"  horiz-adv-x="1024" />

    
    <glyph glyph-name="arrow-left" unicode="&#58886;" d="M694.475 63.547000000000025l-56.285-58.26-393.996 392.021 393.996 392.021 56.285-58.26-331.786-333.761z"  horiz-adv-x="1024" />

    
    <glyph glyph-name="fa-video-camera" unicode="&#59940;" d="M64 640v-512h704v108l146.016-72.992 45.984-23.008V628l-46.016-23.008L768 532V640H64z m64-64h576v-384H128V576z m768-52v-280l-128 64v152l128 64z"  horiz-adv-x="1024" />

    
    <glyph glyph-name="icon" unicode="&#58881;" d="M512.07440346 320.79565980999996l-163.44146388 163.43866676c-6.8641387 6.86973294-18.00563717 6.86973294-24.87033531 0-6.87029237-6.8641387-6.87029237-18.00563717 0-24.8703353l175.87635183-175.87635182c6.8641387-6.86973294 18.00563717-6.86973294 24.8703353 1e-8l175.87579238 175.87635181c3.43486648 3.43262877 5.15285913 7.93431777 5.15285915 12.43488795s-1.71799266 9.00225918-5.15285915 12.43488791c-6.8641387 6.86973294-18.00563717 6.86973294-24.87033528 1e-8l-163.44090448-163.43866676z"  horiz-adv-x="1024" />

    
    <glyph glyph-name="youxiang" unicode="&#58903;" d="M1055.55957057 779.5078125L232.11230494 779.5078125C168.36962865 779.5078125 116.4921875 728.5532224 116.4921875 665.86523412l0-563.73046824C116.4921875 39.44677760000002 168.36962865-11.5078125 232.11230494-11.5078125l823.44726563 0c63.74267553 0 115.62011744 50.9545901 115.62011668 113.64257838L1171.17968725 665.86523412C1171.17968725 728.5532224 1119.30224609 779.5078125 1055.55957057 779.5078125z m0-54.58007813c12.98584009 0 24.9829099-4.15283203 34.87060521-11.14013646L682.859375 430.86767578c-23.33496094-16.21582031-54.71191432-16.21582032-78.04687525 0L197.24169897 713.7875979099999a60.18310522 60.18310522 0 0 0 34.87060597 11.14013647l823.44726563 0z m0-681.85546875L232.11230494 43.07226562000005a59.65576197 59.65576197 0 0 0-60.1171875 59.06250026L171.99511744 664.54687525l400.78124949-278.23974609c21.22558568-14.76562525 46.14257787-22.1484375 71.05957082-22.14843751 24.91699219 0 49.83398438 7.38281225 71.05957005 22.14843751l400.78125027 278.23974609 0-562.41210937a59.65576197 59.65576197 0 0 0-60.1171875-59.06250025z"  horiz-adv-x="1365" />

    
    <glyph glyph-name="shandian" unicode="&#58902;" d="M918.023441 452.29067H715.311767L783.242382 896 310.84857 315.70933h235.716831l-66.850446-443.70933 438.308486 580.29067z m0 0"  horiz-adv-x="1228" />

    
    <glyph glyph-name="xingzhuang60kaobei2" unicode="&#58889;" d="M1077.529145 507.793752C1072.06379 524.466544 1056.511742 535.673981 1039.008769 535.673981L686.956883 535.673981 578.161726 868.175116C572.876243 884.792563 557.37954 896 539.765877 896 522.262904 896 506.710856 884.792563 501.370028 868.299643L392.450343 535.673981 40.467639 535.673981C22.909321 535.673981 7.398781 524.466544 2.002608 507.793752-3.462747 491.286996 2.528389 473.036861 16.682967 462.880986L301.504067 257.46665199999995 192.764255-75.21435499999995C187.243555-91.77645700000005 193.234691-109.86055599999997 207.444614-120.12712099999999 221.474665-130.338342 240.845544-130.338342 254.944776-120.12712099999999L539.765877 85.41173900000001 824.642322-120.12712099999999C831.629675-125.19122300000004 839.972989-127.82012799999995 848.371649-127.82012799999995 856.701127-127.82012799999995 865.099787-125.19122300000004 872.142485-120.12712099999999 886.297062-109.86055599999997 892.288199-91.77645700000005 886.767498-75.21435499999995L778.138377 257.46665199999995 1062.793441 462.880986C1076.934183 473.036861 1082.869974 491.286996 1077.529145 507.793752Z"  horiz-adv-x="1080" />

    
    <glyph glyph-name="jiantouxiangxia" unicode="&#58988;" d="M749.333333 486.666667c0 2.933333 1.6 6 4.533334 8 5.2 3.466667 12.8 2.8 17.066666-1.6l136-133.333334 135.6 132.933334c4.133333 4.4 11.866667 5.066667 17.066667 1.6s6-10 1.866667-14.4L916.4 336.933333c-2.266667-2.4-5.733333-3.866667-9.466667-3.866666s-7.2 1.466667-9.466666 3.866666L752 480.266667c-1.733333 1.866667-2.666667 4.133333-2.666667 6.4z"  horiz-adv-x="1821" />

    
    <glyph glyph-name="location1" unicode="&#58904;" d="M512.09668625 563.88658219a99.58288406 99.58288406 0 1 0-70.78783313-29.39494782A99.58288406 99.58288406 0 0 0 512.09668625 563.88658219m0 59.98968937a160.17247031 160.17247031 0 1 1 113.38051313-46.79195812A158.97267656 158.97267656 0 0 1 512.09668625 623.8762715600001zM786.84946344 747.45503156a382.13432062 382.13432062 0 0 1-549.50555344 0 404.33050594 404.33050594 0 0 1 0-562.10338875L512.09668625-96l274.75277719 281.35164281a404.33050594 404.33050594 0 0 1 0 562.10338875z m-41.39288532-522.51019406l-233.35989187-239.95875656-233.35989094 239.95875656a342.54112594 342.54112594 0 0 0 0 476.91802969 325.14411562 325.14411562 0 0 0 466.71978282 0 342.54112594 342.54112594 0 0 0 0-476.91802969z"  horiz-adv-x="1024" />

    
    <glyph glyph-name="gouwuche" unicode="&#58895;" d="M357.44 129.60000000000002q18.24 0 34.56-6.72t28.8-18.72 19.2-28.32 6.72-34.56-6.72-34.56-19.2-28.32-28.8-19.2-34.56-7.2q-19.2 0-35.04 7.2t-28.32 19.2-19.2 28.32-6.72 34.56 6.72 34.56 19.2 28.32 28.32 18.72 35.04 6.72zM756.8 127.67999999999995q18.24 0 35.04-6.72t28.8-18.72 19.2-28.32 7.2-34.56-7.2-34.56-19.2-28.32-28.8-19.2-35.04-7.2-34.56 7.2-28.32 19.2-19.2 28.32-7.2 34.56 7.2 34.56 19.2 28.32 28.32 18.72 34.56 6.72zM918.08 672.96q26.88 0 41.76-7.2t21.12-17.76 5.76-22.56-3.36-20.64-12-35.52-20.64-59.04-22.56-63.84-16.8-49.92q-12.48-38.4-31.68-53.28t-47.04-14.88l-32.64 0-62.4 0-81.6 0-89.28 0-238.08 0 14.4-86.4 483.84 0q46.08 0 46.08-39.36 0-19.2-9.12-33.12t-36-13.92l-46.08 0-89.28 0-110.4 0-112.32 0-92.16 0-52.8 0q-19.2 0-32.16 8.64t-21.6 22.56-13.92 30.24-8.16 30.72q-0.96 5.76-5.28 27.84t-10.56 55.2-13.92 73.92-15.36 82.08q-18.24 96.96-41.28 216l-72 0q-14.4 0-24 7.2t-15.84 17.28-8.64 21.6-2.4 21.12q0 19.2 12.96 31.68t35.04 12.48l21.12 0 19.2 0 24 0 32.64 0q19.2 0 30.72-5.76t18.24-14.4 9.6-18.24 4.8-16.32q1.92-7.68 3.84-21.6t3.84-28.32q2.88-17.28 5.76-36.48l656.64 0z"  horiz-adv-x="1024" />

    
    <glyph glyph-name="arrow-right1" unicode="&#58885;" d="M290.54293333 794.24458903l68.3091437 70.70727585 478.16521956-475.76830103-478.16521956-475.76830104-68.3091437 70.70727585 402.6653203 405.06223882z"  horiz-adv-x="1024" />

    
    <glyph glyph-name="youxiang1" unicode="&#58967;" d="M1024 694.4c0-28.8-9.6-57.6-28.8-86.4-19.2-28.8-41.6-51.2-70.4-70.4-144-99.2-233.6-160-268.8-185.6-3.2-3.2-12.8-9.6-25.6-16-12.8-9.6-22.4-16-32-22.4l-28.8-19.2c-9.6-6.4-22.4-12.8-32-16-9.6-3.2-19.2-6.4-28.8-6.4-9.6 0-19.2 3.2-28.8 6.4-12.8 3.2-22.4 9.6-32 16l-28.8 19.2c-9.6 6.4-19.2 12.8-32 22.4-12.8 9.6-19.2 16-25.6 16-51.2 35.2-99.2 70.4-150.4 105.6-64 44.8-105.6 73.6-118.4 80-19.2 16-41.6 38.4-60.8 67.2-22.4 28.8-32 54.4-32 76.8 0 32 6.4 54.4 22.4 73.6 16 19.2 38.4 28.8 67.2 28.8h841.6c25.6 0 44.8-9.6 64-25.6 19.2-16 28.8-38.4 28.8-64z m0-166.4v-454.4c0-25.6-9.6-48-25.6-64-19.2-19.2-38.4-25.6-64-25.6H92.8c-25.6 0-48 9.6-64 25.6-19.2 19.2-25.6 38.4-25.6 64V528c16-19.2 35.2-35.2 57.6-51.2 137.6-92.8 233.6-160 284.8-198.4 16-12.8 35.2-25.6 54.4-38.4 12.8-9.6 32-19.2 54.4-28.8 22.4-9.6 44.8-12.8 64-12.8 19.2 0 41.6 3.2 64 12.8 22.4 9.6 41.6 19.2 54.4 28.8 19.2 12.8 35.2 25.6 54.4 38.4 64 48 160 112 284.8 198.4 12.8 16 32 32 48 51.2z"  horiz-adv-x="1024" />

    
    <glyph glyph-name="knife-fork" unicode="&#58898;" d="M772.729-6.493000000000052c-0.067-33.176-8.586-54.234-40.181-54.179-31.54 0.08-38.454 21.269-38.37 54.456l-1.008 278.33c-1.14-0.128-127.654 15.173-119.25 136.828 0 0 36.208 420.065 172.277 419.729 34.739-0.076 25.896-91.949 25.896-91.949l0.636-743.215z m0 0M389.37 596.558c0-0.198-0.198-0.198 0 0v-0.198 0.198z m0 0M488.25 562.607c0 85.774-29.784 185.052-47.66 265.47v0.594h-15.878l-0.395-232.113c0-12.114-5.757-22.042-17.876-22.042-11.315 0-15.887 8.539-17.07 19.656-0.199 0.801 0 1.595 0 2.387L368.92 828.671h-15.89l-17.868-232.312-0.192-2.188c-1.195-11.117-7.348-19.659-18.867-19.659-12.113 0-18.068 9.931-18.068 22.045l-0.799 232.113h-15.883C263.878 747.26 234.1 648.179 234.1 562.404c0-51.032 28.987-95.505 72.866-115.56 22.24-10.123 22.445-20.45 22.445-20.45s-31.779-400.49-31.779-423.131c0-22.632 7.948-36.726 18.86-47.65 10.928-10.926 28.201-16.286 44.48-16.286h0.794c16.29 0 33.362 5.36 44.478 16.286 10.925 10.925 18.464 21.646 18.464 47.65 0 26.015-31.766 423.13-31.766 423.13s-1.992 9.926 22.63 21.049c42.894 19.46 72.679 63.932 72.679 115.165z m0 0"  horiz-adv-x="1024" />

    
    <glyph glyph-name="jian" unicode="&#59236;" d="M490.6 351.9h37.9v-69.3h-37.9zM784.4 794H239.6c-76 0-137.6-61.7-137.6-137.9v-544.2c0-76.2 61.6-137.9 137.6-137.9h544.8c76 0 137.6 61.7 137.6 137.9V656.1c0 76.2-61.6 137.9-137.6 137.9z m-87.8-162.9c2.7-5 4.9-9.4 6.9-13.2 1.9-3.8 3.7-7.4 5.4-10.9 1.7-3.4 3.5-7.1 5.4-10.9 1.9-3.8 4-8.2 6.3-13.2L673.7 568c-3.4 9.9-6.7 18.3-9.7 25.2-3.1 6.9-7.2 15.1-12.6 24.6l45.2 13.3zM309.1 575c8.8-18.3 17.9-37.6 27.4-57.8 9.5-20.2 18.3-39.5 26.3-57.8l-48.6-23.5c-4.2 17.2-10.7 36.3-19.4 57.3-8.8 21-18.7 40.5-29.7 58.4l44 23.4z m-33.7-382.3c-7.6 5.2-16.4 9.8-26.3 14 6.5 11.1 12.9 24.2 19.4 39.5 6.5 15.3 12.9 31.5 19.4 48.7 6.5 17.6 11.4 33.3 14.9 47.3 3.4 13.9 6.7 29.1 9.7 45.5 5.3-6.9 11.6-12.3 18.9-16.3 7.2-4 14.9-7 22.9-8.9-5-15.7-9.9-31.8-14.9-48.4-5-16.6-9.7-32.9-14.3-49-5.3-19.5-10.3-37.2-14.9-53.3-4.6-16-7.8-29-9.7-38.9-9.1 8.1-17.5 14.6-25.1 19.8z m212 4.3h-41.1c1.9 11.1 3.1 20.9 3.7 29.5 0.6 8.6 0.9 19.6 0.9 32.9V339c0 10.7-0.3 19.6-0.9 26.6-0.6 7.1-1.4 13.5-2.6 19.2 2.7-0.8 5.6-1.3 8.9-1.7 3.2-0.4 7.1-0.7 11.7-0.9 4.6-0.2 10.2-0.4 16.9-0.6 6.7-0.2 14.9-0.3 24.9-0.3 9.9 0 18.1 0.1 24.6 0.3 6.5 0.2 12 0.4 16.6 0.6 4.6 0.2 8.3 0.5 11.1 0.9 2.9 0.4 5.8 0.9 8.9 1.7-1.1-5.4-2-11.7-2.6-19.2-0.6-7.4-0.9-16.3-0.9-26.6v-67c0-12.2 0.3-22.6 0.9-31.2 0.6-8.6 1.6-19 3.1-31.2h-40.6v22.9h-43.4V197z m-40 222.2v44.1c6.5-1.9 14.2-3.2 23.1-3.7 8.9-0.6 20.3-0.9 34-0.9 13.3 0 24.7 0.3 34 0.9 9.3 0.6 17.2 1.8 23.7 3.7v-44.1c-7.2 1.1-15.2 2.1-24 2.9-8.8 0.8-19.8 1.1-33.1 1.1-13.7 0-25.1-0.4-34.3-1.1-9.1-0.8-16.9-1.7-23.4-2.9z m308.9-262.9c-6.3-15.3-13.3-25-21.1-29.2-7.8-4.2-16.6-3.1-26.3 3.4s-21.2 17.8-34.6 33.8c-11.1 13.4-22.5 31.9-34.3 55.6-7.2-9.9-15.2-19.9-24-29.8-8.8-9.9-17.7-19.4-26.9-28.4-9.1-9-18.2-17.3-27.1-24.9-9-7.6-17.4-14.1-25.4-19.5-4.2 5.4-9.9 11-17.1 16.9-7.2 5.9-15.1 10.6-23.4 14 24 12.6 46.7 28.4 68 47.5 21.3 19.1 40.6 41.4 57.7 67-4.6 11.8-8.8 25.3-12.6 40.4-3.8 15.1-7.5 32.6-11.1 52.7-3.6 20-7.1 42.7-10.3 67.9-3.2 25.2-6.2 53.6-8.9 85.3H425.1c0-41.2-0.3-77.4-0.9-108.5-0.6-31.1-1.8-58.5-3.7-82.2-1.9-23.7-4.4-44.6-7.4-62.7-3.1-18.1-7-34.9-11.7-50.4-4.8-15.5-10.7-30.4-17.7-45-7.1-14.5-15.1-30.2-24.3-47-6.5 3.4-14.1 6.8-22.9 10-8.8 3.2-17.5 5.3-26.3 6 7.6 6.1 15.6 17 24 32.6 8.4 15.7 16.2 34 23.4 55 7.2 21 13.2 43.4 18 67.3 4.8 23.9 7.3 47.1 7.7 69.6 0.8 25.6 0.9 54.8 0.3 87.6-0.6 32.8-1.6 70.8-3.1 114 4.6-0.8 11.5-1.4 20.9-2 9.3-0.6 21.7-1.1 37.1-1.4 15.4-0.4 34.3-0.8 56.6-1.1 22.3-0.4 48.9-0.6 79.7-0.6-2.7 39.3-4.4 70.8-5.1 94.5 6.9-1.9 15.3-3.4 25.4-4.6 10.1-1.1 18.4-1.3 24.9-0.6 12.6 1.1 14.3-3.4 5.1-13.7-1.9-1.9-3.2-9.8-4-23.8-0.8-13.9-1-31.2-0.6-51.8 17.9 0 33.3 0.2 46.3 0.6 12.9 0.4 24.1 0.8 33.4 1.1 9.3 0.4 17 0.8 23.1 1.1 6.1 0.4 11.4 0.9 16 1.7v-51c-5.3 0.8-11.2 1.4-17.7 2-6.5 0.6-14.3 1.1-23.4 1.7-9.1 0.6-19.9 0.9-32.3 1.1-12.4 0.2-27 0.3-43.7 0.3 0.8-17.2 2-34.6 3.7-52.1 1.7-17.6 3.7-34.7 6-51.5 2.3-16.8 4.9-33.1 7.7-49 2.9-15.8 6-30.3 9.4-43.2 7.6 18.7 14.3 41 20 67 5.7 26 10.1 54 13.1 84.2 8.8-3.4 16.6-6 23.4-7.7 6.9-1.7 15.4-3 25.7-3.7 5.3-0.4 8.2-1.9 8.6-4.6 0.4-2.7-1.5-5-5.7-6.9-1.1-0.4-2.2-1.2-3.1-2.6-1-1.3-2.1-3.6-3.4-6.9-1.3-3.2-3-7.9-4.9-14-1.9-6.1-4.4-14.1-7.4-24.1-9.1-31.3-17.4-57.2-24.9-77.6-7.4-20.4-15.3-38.5-23.7-54.1 6.9-16.8 12.9-29.9 18.3-39.2 5.3-9.4 10.7-17.3 16-23.8 4.9-5.7 9.1-9.5 12.6-11.5 3.4-1.9 6.5-1.4 9.1 1.4 2.7 2.9 5 8.5 7.1 16.9 2.1 8.4 4.3 20 6.6 34.9 7.2-6.9 13.5-11.7 18.9-14.6 5.3-2.9 11.8-4.9 19.4-6-5.9-27.1-12.1-48.5-18.4-63.8z"  horiz-adv-x="1024" />

    
    <glyph glyph-name="che" unicode="&#58900;" d="M908.288 62.464H146.432c-57.344 0-103.424 46.08-103.424 103.424v163.84c0 57.344 46.08 103.424 103.424 103.424h762.88c57.344 0 103.424-46.08 103.424-103.424v-164.864c-1.024-56.32-47.104-102.4-104.448-102.4zM146.432 375.808c-25.6 0-45.056-20.48-45.056-45.056v-164.864c0-25.6 20.48-45.056 45.056-45.056h762.88c25.6 0 45.056 20.48 45.056 45.056v163.84c0 25.6-20.48 45.056-45.056 45.056H146.432zM257.024 145.408c-56.32 0-102.4 46.08-102.4 102.4s46.08 102.4 102.4 102.4 102.4-46.08 102.4-102.4-46.08-102.4-102.4-102.4z m0 142.336c-22.528 0-39.936-18.432-39.936-39.936s18.432-39.936 39.936-39.936 39.936 18.432 39.936 39.936-18.432 39.936-39.936 39.936zM797.696 145.408c-56.32 0-102.4 46.08-102.4 102.4s46.08 102.4 102.4 102.4 102.4-46.08 102.4-102.4-46.08-102.4-102.4-102.4z m0 142.336c-22.528 0-39.936-18.432-39.936-39.936s18.432-39.936 39.936-39.936 39.936 18.432 39.936 39.936-17.408 39.936-39.936 39.936zM871.424 379.904H183.296l50.176 224.256c10.24 47.104 56.32 80.896 107.52 80.896h372.736c52.224 0 97.28-33.792 107.52-80.896l50.176-224.256z m-626.688 49.152h565.248l-36.864 164.864c-5.12 24.576-30.72 43.008-59.392 43.008H340.992c-28.672 0-54.272-17.408-59.392-43.008l-36.864-164.864zM253.952-87.04c-19.456 0-35.84 16.384-35.84 35.84v71.68c0 19.456 16.384 35.84 35.84 35.84s35.84-16.384 35.84-35.84v-71.68c0-20.48-15.36-35.84-35.84-35.84zM800.768-87.04c-19.456 0-35.84 16.384-35.84 35.84v71.68c0 19.456 16.384 35.84 35.84 35.84s35.84-16.384 35.84-35.84v-71.68c-1.024-20.48-16.384-35.84-35.84-35.84z"  horiz-adv-x="1024" />

    
    <glyph glyph-name="fenxiang" unicode="&#58950;" d="M359.694222 201.593535S419.269818 625.260606 849.55798 691.457293c0 0 13.242182-6.621091 0-19.858101-13.238303-13.23701-92.677172-86.056081-92.677172-86.056081s-13.23701-59.580768 52.959677-39.721374c0 0 158.873859 145.635556 158.873858 158.879031 0 13.23701 26.479192 26.47402-26.480484 59.575596L737.021414 837.094141s-79.438869 0-39.716202-66.196686l79.433697-13.242182s13.242182-6.617212 0-13.238303c0 0-152.252768-13.242182-311.130505-185.353051C293.496242 380.326788 293.496242 201.593535 293.496242 201.593535s33.096404-59.580768 66.19798 0z m0 0M975.335434 367.088485c0 19.859394-13.242182 33.096404-33.101575 33.096404-19.858101 0-33.095111-19.858101-33.095112-33.096404v-311.130505c0-33.101576-26.480485-59.575596-59.580767-59.575596H174.339879c-33.100283 0-59.580768 26.47402-59.580768 59.575596V678.220283c0 33.096404 26.480485 59.575596 59.580768 59.575596h244.929939c19.858101 0 33.100283 13.242182 33.100283 33.101576 0 19.858101-13.242182 33.095111-33.100283 33.095111H174.339879C108.13802 803.992566 48.562424 744.41697 48.562424 678.220283V55.95798c0-72.817778 59.575596-125.777455 125.777455-125.777455H849.55798c72.817778 0 125.777455 59.580768 125.777454 125.777455V367.088485z m0 0"  horiz-adv-x="1024" />

    
    <glyph glyph-name="camera" unicode="&#58976;" d="M901.471-27.95399999999995H123.23c-61.154 0-110.88 49.879-110.88 111.224V591.879c0 61.345 49.754 111.262 110.88 111.262h111.099c1.978 4.396 8.466 18.729 12.852 29.774 18.938 47.929 32.918 61.039 65.014 61.039h403.253c32.755 0 42.521-13.606 58.497-47.126 5.37-11.275 16.703-37.399 19.397-43.687H901.47c61.153 0 110.88-49.859 110.88-111.262V83.26999999999998c0.001-61.307-49.764-111.224-110.879-111.224z m70.116 619.871c0 38.794-31.437 70.403-70.116 70.403H780.5c-8.294 0-16.167 5.581-19.607 13.855-1.968 4.777-8.638 19.798-15.059 34.342l-10.091 22.761-0.688 1.644c-3.688 8.523-7.836 18.212-20.965 18.212H312.195c-14.973 0-21.347-16.358-25.168-26.181a117.807 117.807 0 0 0-1.453-3.631l-6.498-15.537c-3.803-9.173-7.75-18.671-13.473-31.628-3.182-7.205-8.179-13.836-22.98-13.836H123.23c-38.699 0-70.155-31.628-70.155-70.403h-0.019v-508.59c0-38.813 31.447-70.385 70.146-70.385h778.27c38.68 0 70.116 31.571 70.116 70.385V591.9169999999999z m-115.332-67.078H805.44a20.464 20.464 0 0 0-14.428 6.02 20.339 20.339 0 0 0-5.943 14.428c0 11.256 9.153 20.391 20.371 20.391h50.815c11.218 0 20.372-9.154 20.372-20.391 0-5.408-2.121-10.587-5.943-14.428s-9.021-6.001-14.429-6.02zM512.35 109.04999999999995c-125.327 0-227.272 102.414-227.272 228.314 0 125.881 101.945 228.295 227.272 228.295 125.318 0 227.273-102.414 227.273-228.295 0-125.9-101.955-228.314-227.273-228.314z m0 417.031c-103.58 0-187.829-84.66-187.829-188.717 0-104.058 84.278-188.698 187.829-188.698s187.809 84.641 187.809 188.698S615.92 526.081 512.35 526.081z m0 0"  horiz-adv-x="1024" />

    
    <glyph glyph-name="liwu" unicode="&#58938;" d="M901.38713 676.997565h-34.281739c17.363478 29.517913 25.021217 57.655652 22.572522 83.745392-2.003478 21.815652-12.377043 53.114435-50.309565 78.002086C807.936 859.447652 767.465739 864.52313 722.587826 853.25913c-72.748522-18.253913-158.898087-81.074087-215.485217-156.983652C450.426435 772.229565 364.365913 835.005217 291.617391 853.25913 246.650435 864.567652 206.224696 859.447652 174.747826 838.745043c-37.888-24.932174-48.261565-56.141913-50.309565-78.002086-2.404174-26.089739 5.164522-54.227478 22.617043-83.70087h-34.281739A94.386087 94.386087 0 0 1 18.521043 582.656v-121.455304c0-41.138087 27.158261-77.467826 66.381914-89.666783a93.273043 93.273043 0 0 1-5.698783-31.788522v-364.410434c0-51.95687 42.340174-94.297043 94.297043-94.297044h667.291826A94.386087 94.386087 0 0 1 934.956522-24.620522v364.410435c0 10.863304-1.914435 21.548522-5.609739 31.833044a94.341565 94.341565 0 0 1 66.248347 89.62226V582.700522a94.386087 94.386087 0 0 1-94.252521 94.297043z m-60.638608-728.731826h-300.121044v418.682435h300.165565a27.158261 27.158261 0 0 0 27.069218-27.158261v-364.410435a27.158261 27.158261 0 0 0-27.113739-27.158261zM577.625043 676.953043c47.682783 55.073391 110.369391 98.348522 161.213218 111.126261 26.445913 6.589217 48.083478 4.808348 63.710609-5.520695 16.65113-10.952348 19.589565-20.658087 20.257391-28.048696 2.671304-26.980174-26.267826-63.354435-39.936-77.55687h-205.245218z m350.831305-94.297043v-121.455304c0-14.959304-12.109913-27.113739-27.069218-27.113739h-360.759652V609.814261h360.759652c14.959304 0 27.069217-12.154435 27.069218-27.158261z m-454.967652-215.752348v-418.682435H173.501217a27.158261 27.158261 0 0 0-27.15826 27.11374v364.410434a27.158261 27.158261 0 0 0 27.15826 27.158261h299.987479zM191.354435 754.554435c0.667826 7.390609 3.650783 17.096348 20.212869 28.048695 15.582609 10.329043 37.175652 12.198957 63.755131 5.520696C325.89913 775.43513 388.496696 732.16 436.313043 676.953043H231.245913c-12.243478 12.421565-42.562783 49.953391-39.891478 77.55687z m-105.739131-171.853913a27.158261 27.158261 0 0 0 27.158261 27.158261h360.715131v-175.727305H112.773565a27.158261 27.158261 0 0 0-27.158261 27.158261V582.656z"  horiz-adv-x="1024" />

    
    <glyph glyph-name="icon__left" unicode="&#58992;" d="M333.16 384L762.1 812.94a41.11 41.11 0 0 1 0 58 41.11 41.11 0 0 1-58 0L246.67 413.47c-0.16-0.15-0.33-0.3-0.49-0.47a41.14 41.14 0 0 1 0-58c0.16-0.17 0.33-0.32 0.49-0.47l457.45-457.45a41.11 41.11 0 0 1 58 0 41.11 41.11 0 0 1 0 58z"  horiz-adv-x="1024" />

    
    <glyph glyph-name="bofanganniu" unicode="&#58951;" d="M947.2 654.08c-3.84 6.4-11.52 7.68-17.92 3.84-6.4-3.84-7.68-11.52-3.84-17.92C972.8 563.2 998.4 474.88 998.4 384c0-268.8-217.6-486.4-486.4-486.4S25.6 115.2 25.6 384 243.2 870.4 512 870.4c79.36 0 153.6-17.92 224-53.76 6.4-3.84 14.08-1.28 16.64 5.12 3.84 6.4 1.28 14.08-5.12 16.64C674.56 876.8 593.92 896 512 896 229.12 896 0 666.88 0 384s229.12-512 512-512 512 229.12 512 512c0 96-26.88 189.44-76.8 270.08zM849.92 756.48m-34.56 0a34.56 34.56 0 1 1 69.12 0 34.56 34.56 0 1 1-69.12 0ZM428.8 587.52c-14.08 7.68-32-2.56-32-17.92v-389.12c0-16.64 17.92-26.88 32-17.92l167.68 97.28 167.68 97.28c14.08 7.68 14.08 28.16 0 35.84l-167.68 97.28-167.68 97.28z"  horiz-adv-x="1024" />

    
    <glyph glyph-name="huangguan" unicode="&#58890;" d="M97.3 538.9l2.7 7.5c6.8 20.4 24.7 34.1 46.5 35.7 19.9 1.4 39.8-10.2 49.1-28.4 9.5-18.6 6.8-40.6-6.9-57-1.6-1.8-3.2-3.6-5-5.7 38.5-23.6 76.8-46.9 115-70.4 14.5-8.9 29-17.9 43.5-26.5 8.3-4.9 14.6-3.4 19.1 4.7 43.8 79.9 87.7 159.9 131.9 240.6-19.1 9.7-31.5 24.5-32.6 46.5-0.8 15.4 4.7 28.6 15.6 39.4 21.7 21.1 57.3 19.1 76.3-4.3 21.9-26.8 14-58.2-20.7-81.8 11.3-20.7 22.7-41.6 34.2-62.3 31.9-58 63.5-115.8 95.4-173.8 7.3-13.4 12-14.6 25.1-6.8 49.3 30.1 98.4 60.3 147.7 90.4 2.3 1.4 4.5 2.8 7.1 4.5-10.2 10.2-16.6 21.7-17.4 35.9-1.4 26.5 16.8 49.7 42.4 54.1 26.6 4.7 51.4-10.6 59.2-36.3 0.6-2 1.4-4.1 2.2-6.1v-17.9c-8.4-26.8-25.6-42.4-55.2-42.6-1-3-2.2-6.1-3-9.1-28.8-98.8-57.6-197.8-86.5-296.6-3.7-12.9-8.3-16.3-21.3-16.3H264c-14 0-18.3 3.2-22.1 16.3-23.5 80.2-46.7 160.6-70.2 240.8-6.3 21.7-12.7 43.4-19.1 65.1-22.1 0-38.7 8.7-49.1 27.8-2.5 4.7-4.1 9.9-6.1 14.8-0.1 6-0.1 11.9-0.1 17.8z m0 0M512.3 104.3h232.5c20.7 0 37.3-14.6 39.6-34.3 2.3-19.9-10.7-37.9-30.8-42.4-2.9-0.8-5.9-0.9-8.8-0.9H279.6c-17.7 0-32.6 10.6-37.8 26.5-5.3 16-0.4 34 13.8 43.2 7.3 4.7 17 7.9 25.6 7.9 77.1 0.4 154.1 0 231.1 0z m0 0"  horiz-adv-x="1024" />

    
    <glyph glyph-name="xiasanjiao" unicode="&#59115;" d="M256.204 511.694l256.207-320.26 256.206 320.26z"  horiz-adv-x="1024" />

    
    <glyph glyph-name="jian1" unicode="&#59005;" d="M511.455 893.354c-281.147 0-509.058-227.91-509.058-509.058 0-281.143 227.91-509.053 509.058-509.053 281.142 0 509.052 227.91 509.052 509.053 0 281.147-227.91 509.058-509.052 509.058z m203.623-551.479H307.833v84.847h407.245v-84.847z"  horiz-adv-x="1024" />

    
    <glyph glyph-name="index" unicode="&#58891;" d="M569.8048 874.7264a82.0736 82.0736 0 0 1-110.2848 0L13.568 451.2768a41.1392 41.1392 0 0 1 55.0912-61.1072l7.0912 6.7328V-45.05600000000004a82.2784 82.2784 0 0 1 82.2784-82.3808h239.4368v247.7056a57.9328 57.9328 0 0 0 57.9584 58.0096h112.6656a57.9328 57.9328 0 0 0 57.9584-58.0096v-247.7056h245.12a82.2784 82.2784 0 0 1 82.304 82.3808V391.5008c18.2784-16.5376 44.2112-15.2832 59.4176 1.664a41.1392 41.1392 0 0 1-2.9696 58.112L569.8048 874.7008z"  horiz-adv-x="1024" />

    
    <glyph glyph-name="qiye" unicode="&#58934;" d="M975.0528 245.9648v-317.8496c0-27.4432-22.1184-49.7664-49.152-49.7664h-150.3232c-8.3968 0-15.1552 7.168-14.7456 15.5648v29.4912c0 2.4576 2.048 4.7104 4.7104 4.7104h140.9024c10.6496 0 19.456 8.6016 19.456 19.456V231.2192c0 8.192-6.5536 14.7456-14.7456 14.7456h-134.3488c-8.8064 0-15.9744 7.168-15.9744 15.9744V281.6c0.4096 7.7824 6.9632 13.9264 14.7456 13.9264H925.696c27.2384 0 49.3568-22.1184 49.3568-49.5616z m-285.696 526.336h-141.9264V857.2928c0 17.8176-14.336 32.3584-32.1536 32.5632-18.0224 0.2048-32.768-14.5408-32.768-32.5632l0.2048-84.992h-139.6736c-27.2384 0-49.152-22.1184-49.152-49.5616v-839.68c0-2.6624 2.048-4.7104 4.7104-4.7104l39.5264-0.2048c2.6624 0 4.9152 2.048 4.9152 4.7104V703.2832c0 10.8544 8.8064 19.456 19.456 19.456h307.2c10.8544 0 19.456-8.8064 19.456-19.456v-820.224c0-2.6624 2.2528-4.7104 4.9152-4.7104l39.5264 0.2048c2.6624 0 4.7104 2.2528 4.7104 4.7104v839.68c0.2048 27.2384-21.9136 49.3568-48.9472 49.3568zM256.6144 419.0208H106.2912c-27.2384 0-49.152-22.1184-49.152-49.5616v-441.344c0-27.4432 22.1184-49.7664 49.152-49.7664h150.3232c8.3968 0 15.1552 7.168 14.7456 15.5648v29.4912c0 2.4576-2.048 4.7104-4.7104 4.7104H125.5424c-10.6496 0-19.456 8.6016-19.456 19.456V354.7136c0 8.192 6.5536 14.7456 14.7456 14.7456h134.3488c8.8064 0 15.9744 7.168 15.9744 15.9744v19.6608c-0.4096 7.7824-6.7584 13.9264-14.5408 13.9264z m183.296 183.296h42.5984v65.1264h-42.5984v-65.1264z m109.1584 0h42.5984v65.1264h-42.5984v-65.1264z m-109.1584-128.6144h42.5984v65.1264h-42.5984v-65.1264z m109.1584 0h42.5984v65.1264h-42.5984v-65.1264z m-109.1584-109.1584h42.5984v65.1264h-42.5984v-65.1264z m109.1584 0h42.5984v65.1264h-42.5984v-65.1264z m-109.1584-128.6144h42.5984v65.1264h-42.5984v-65.1264z m109.1584 0h42.5984v65.1264h-42.5984v-65.1264z m-109.1584-111.2064h42.5984v65.1264h-42.5984v-65.1264z m109.1584 0h42.5984v65.1264h-42.5984v-65.1264z m-109.1584-128.6144h42.5984v65.1264h-42.5984v-65.1264zM223.232 301.056H180.6336v-65.1264H223.232v65.1264z m0-111.2064H180.6336v-65.1264H223.232v65.1264z m-42.5984-193.7408H223.232v65.1264H180.6336v-65.1264z m661.7088 178.5856h-42.5984V109.568h42.5984v65.1264z m-42.5984-176.3328h42.5984v65.1264h-42.5984v-65.1264z m-250.6752-2.2528h42.5984v65.1264h-42.5984v-65.1264z m-109.1584-116.9408h42.5984v65.1264h-42.5984v-65.1264z m109.1584 0h42.5984v65.1264h-42.5984v-65.1264z"  horiz-adv-x="1024" />

    
    <glyph glyph-name="sousuo1" unicode="&#58896;" d="M806.62264 264.135l270.93-270.93a71.297 71.297 0 0 0-100.53-100.529l-261.66 258.81a427.784 427.784 0 1 0 88.408 112.65z m-376.45-81.279a285.19 285.19 0 1 1-285.19 285.19 285.19 285.19 0 0 1 285.19-285.19z"  horiz-adv-x="1097" />

    
    <glyph glyph-name="dingdan-copy" unicode="&#58892;" d="M638.25587948 657.44484915l-248.44190983 0 1e-8 99.21801518 50.00587948 0q0 20.63734717 14.28739426 34.92474141t34.92474142 14.28739426l50.00587948 0q20.63734717 0 34.92474143-14.28739426t14.28739426-34.92474141l50.00587949 0 0-99.21801518zM514.43179647 701.89452036q12.69990582 0 21.82796328 9.12805746t9.12805747 21.82796329q0 13.49365045-9.12805747 22.2248356t-21.82796328 8.73118515q-13.49365045 0-22.22483561-8.73118515t-8.73118515-22.2248356q0-12.69990582 8.73118515-21.82796329t22.22483561-9.12805746zM713.6615706 311.37241259999996q35.71848523 0 67.46825061-13.89052194t55.5620886-37.70284598 37.70284597-55.5620886 13.89052195-67.4682506q0-36.51222986-13.89052195-68.26199442t-37.70284597-55.5620886-55.5620886-37.30597366-67.46825061-13.49365045q-36.51222986 0-68.26199441 13.49365045t-55.5620886 37.30597366-37.70284597 55.5620886-13.89052195 68.26199442q0 35.71848523 13.89052195 67.4682506t37.70284597 55.5620886 55.5620886 37.70284598 68.26199441 13.89052194zM821.61077174 151.82984519000001q4.76246448 5.55620911 8.73118515 13.49365044t-2.38123224 14.28739426q-1.58748843 1.58748843-7.54056902 7.93744135t-7.54056904 7.14369671q-7.93744135 5.55620911-15.08113806 1.58748844t-14.28739425-11.11241739q-18.25611492-18.25611492-36.11535754-35.71848523t-33.73412531-33.33725299q-5.55620911-5.55620911-12.30303351-6.74682523t-10.71554589 4.36559299q-2.38123223 2.38123223-7.54056904 7.93744134t-10.7155459 11.90616203-10.7155459 12.3030335-7.54056902 8.33431367q-4.76246448 3.96872067-10.7155459 5.15933679t-12.30303351-4.365593q-0.79374381-0.79374381-3.96872068-3.57184835t-6.34995291-6.34995291-6.34995291-6.34995292-3.96872067-3.57184835q-11.90616202-12.69990582 3.17497687-29.36853233 4.76246448-5.55620911 12.69990582-13.89052194t16.66862649-17.85924261 17.4623703-18.65298642 15.08113807-14.68426657q6.34995291-6.34995291 17.4623703-5.95308059t16.66862649 6.74682522q11.11241738 10.31867359 25.39981165 25.00294015t29.76540463 29.76540464 30.16227694 29.76540463 26.59042777 25.79668396zM486.65075258 160.56103034q0-5.55620911-0.39687232-11.11241739t-0.39687231-11.90616202q0-35.71848523 10.31867358-67.86512211t29.36853233-59.13393694l-231.77328333 0q-15.08113807 0-32.94038067 8.73118515t-33.337253 23.01857941-25.79668396 32.54350918-10.31867358 38.09971746l0 491.32761055q0 16.66862649 7.93744135 34.52786911t20.63734716 32.94038067 29.36853232 25.00294015 34.92474143 9.92180127l56.35583239 0 0-99.21801516 346.86618037 0-1e-8 99.21801516 49.21213568 0q18.25611492 0 36.11535755-7.93744135t32.14663687-21.43109096 23.41545172-32.54350919 9.12805747-40.48095054l0-280.98541899q-27.78104389 18.25611492-59.53080927 28.57478851t-67.46825061 10.31867358l-5.55620911 0q14.28739426 5.55620911 23.41545172 18.25611493t9.12805747 28.57478851q0 20.63734717-14.68426658 34.92474143t-35.32161373 14.28739425l-346.86618036 0q-20.63734717 0-35.32161373-14.28739425t-14.68426658-34.92474143 14.68426658-35.32161374 35.32161373-14.68426657l332.5787861 0q-47.62464725-7.93744135-86.51810935-33.7341253t-64.29327373-65.48388986l-181.76740384 0q-20.63734717 0-35.32161374-14.28739425t-14.68426657-34.92474144 14.68426657-35.32161374 35.32161374-14.68426657l146.04891778 0z"  horiz-adv-x="1024" />

    
    <glyph glyph-name="jia" unicode="&#59074;" d="M512.2 832.1C264.7 832.1 64 631.4 64 383.9s200.6-448.2 448.2-448.2 448.2 200.6 448.2 448.2S759.7 832.1 512.2 832.1z m248.9-487.2H561.4v-199.6h-87.9V344.9H273.9v87.9h199.6V632.4h87.9v-199.6H761v-87.9z"  horiz-adv-x="1024" />

    


  </font>
</defs>
</svg>
